<?xml version="1.0" standalone="no"?>
<!DOCTYPE svg PUBLIC "-//W3C//DTD SVG 20010904//EN"
 "http://www.w3.org/TR/2001/REC-SVG-20010904/DTD/svg10.dtd">
<svg version="1.0" xmlns="http://www.w3.org/2000/svg"
 width="512.000000pt" height="512.000000pt" viewBox="0 0 512.000000 512.000000"
 preserveAspectRatio="xMidYMid meet">
<metadata>
Created by potrace 1.11, written by Peter Selinger 2001-2013
</metadata>
<g transform="translate(0.000000,512.000000) scale(0.100000,-0.100000)"
fill="#000000" stroke="none">
<path d="M2378 5116 c-1 -2 -34 -6 -73 -10 -38 -3 -97 -10 -130 -16 -33 -6
-76 -13 -95 -16 -221 -35 -561 -160 -790 -291 -479 -273 -887 -736 -1095
-1243 -52 -128 -115 -324 -129 -400 -2 -14 -7 -36 -10 -50 -44 -190 -65 -557
-44 -780 28 -295 119 -610 253 -880 71 -142 68 -137 171 -295 147 -225 366
-455 604 -633 312 -234 748 -418 1109 -468 20 -3 79 -11 131 -18 89 -12 496
-14 560 -2 14 2 45 7 70 10 310 45 597 139 865 285 635 344 1095 936 1269
1636 13 55 27 116 30 135 3 19 8 49 11 65 24 140 29 216 30 410 0 176 -6 269
-24 390 -100 656 -460 1257 -996 1662 -213 161 -495 307 -755 391 -73 24 -247
68 -300 76 -19 3 -44 8 -56 10 -12 2 -45 7 -74 11 -29 4 -62 9 -74 12 -23 5
-452 13 -458 9z"/>
</g>
</svg>
